inDegrees=yes
name=ik_S46_A01_T01
DataType=double
version=3
OpenSimVersion=4.3-2021-08-27-4bc7ad9
endheader
time	pelvis_tilt	pelvis_list	pelvis_rotation	pelvis_tx	pelvis_ty	pelvis_tz	hip_flexion_r	hip_adduction_r	hip_rotation_r	knee_angle_r	knee_angle_r_beta	ankle_angle_r	subtalar_angle_r	mtp_angle_r	hip_flexion_l	hip_adduction_l	hip_rotation_l	knee_angle_l	knee_angle_l_beta	ankle_angle_l	subtalar_angle_l	mtp_angle_l	lumbar_extension	lumbar_bending	lumbar_rotation	arm_flex_r	arm_add_r	arm_rot_r	elbow_flex_r	pro_sup_r	wrist_flex_r	wrist_dev_r	arm_flex_l	arm_add_l	arm_rot_l	elbow_flex_l	pro_sup_l	wrist_flex_l	wrist_dev_l
0	0	0	0	0	0.9399999999999999	0	0	0	0	0	0	0	0	0	0	0	0	0	0	0	0	0	0	0	0	0	0	0	0	89.99999999963507	0	0	0	0	0	0	89.99999999869995	0	0
0.02	-0.8004207918876192	-1.71802084944602	-86.11724369143052	0	0.9399999999999999	0	-5.299475725689579	-2.861972789260578	-13.23614655274843	1.100515365579498	0.01920761659815131	0	0	0	-3.122900886669033	-6.528919190271388	-3.683384069221986	-1.885611007481559	-0.03291012049240063	0	0	0	0	0	0	1.90561599684712	-1.90561599684712	0.3393271783365021	9.424712505702859	89.66067284123629	0	0	1.90561599684712	-1.90561599684712	0.3393271783365021	9.424712505702859	89.66067284036468	0	0
0.04	-0.8152539295642558	-1.72229492514682	-86.1843915126146	0	0.9399999999999999	0	-5.297595911239758	-2.870798488761265	-13.24919271188725	1.102278588237413	0.01923839063897769	0	0	0	-3.124870390421043	-6.524842901605464	-3.67555396608752	-1.884214479276225	-0.03288574647712059	0	0	0	0	0	0	1.905978782248958	-1.905978782248958	0.3393966720826407	9.427472976309224	89.66060334749429	0	0	1.905978782248958	-1.905978782248958	0.3393966720826407	9.427472976309224	89.66060334662271	0	0
0.06	-0.8023429022886895	-1.684361651228911	-86.22170226099763	0	0.9399999999999999	0	-5.185088585442326	-2.928413648321963	-13.24566228389333	1.330402045562606	0.02321989607033508	0	0	0	-3.028376616320833	-6.509565520730186	-3.71848632117713	-1.622255793563512	-0.02831370490723671	0	0	0	0	0	0	2.908854987825798	-2.908854987825799	0.5251519359666038	12.83718671822616	89.47484809454689	0	0	2.908854987825798	-2.908854987825799	0.5251519359666038	12.83718671822616	89.47484809371015	0	0
0.08	-0.8206033907690882	-1.730930191050163	-86.27483167663372	0	0.9399999999999999	0	-5.299643573968048	-2.913860315751884	-13.20410253064414	1.105590256997717	0.01929619016258044	0	0	0	-3.147623627225	-6.514894022818766	-3.656539926968922	-1.869313805554537	-0.03262568065991173	0	0	0	0	0	0	2.916775408128891	-2.916775408128892	0.526686609829907	12.89494564370722	89.4733134207752	0	0	2.916775408128891	-2.916775408128892	0.526686609829907	12.89494564370722	89.47331341993866	0	0
0.1	-0.8178645678773367	-1.733553543341702	-86.3258254824291	0	0.9399999999999999	0	-5.271414404908753	-2.94635521625562	-13.1691137145226	1.171076650749195	0.02043914334880118	0	0	0	-3.152751456233529	-6.483270339333495	-3.631225133571458	-1.875895540650985	-0.03274055360783882	0	0	0	0	0	0	3.576332028617698	-3.576332028617699	0.6473618847092933	14.996442006337	89.35263815298062	0	0	3.576332028617698	-3.576332028617699	0.6473618847092933	14.996442006337	89.35263815216668	0	0
0.12	-0.8282124005054081	-1.74037855670538	-86.38255400014924	0	0.9399999999999999	0	-5.270807814648491	-2.959083452139208	-13.13889756424499	1.159947345387983	0.02024490032678817	0	0	0	-3.162437809180807	-6.477677242709596	-3.620419073134031	-1.892026837124759	-0.03302209784392154	0	0	0	0	0	0	4.195920034047715	-4.195920034047716	0.7598210003468686	16.99925467305315	89.24017904393386	0	0	4.195920034047715	-4.195920034047716	0.7598210003468686	16.99925467305315	89.24017904314096	0	0
0.14	-0.8421820556742251	-1.721684185205559	-86.43480292147838	0	0.9399999999999999	0	-5.250740356857979	-2.946018295258344	-13.08979660229432	1.127918491926268	0.01968589137824245	0	0	0	-3.14711317252214	-6.481863867531867	-3.607769555080734	-1.908657478577023	-0.03331235729398218	0	0	0	0	0	0	4.854269636429513	-4.854269636429511	0.8782712765240699	19.15413083109167	89.12172877468508	0	0	4.854269636429513	-4.854269636429511	0.8782712765240699	19.15413083109167	89.12172877391437	0	0
0.16	-0.8426427667355133	-1.687915431672627	-86.48642332597649	0	0.9399999999999999	0	-5.139139676811245	-2.995099713130551	-13.06901070424553	1.352291188234	0.0236019336803897	0	0	0	-3.056547015753124	-6.485504131791473	-3.610372694489485	-1.750599892172676	-0.03055373200347091	0	0	0	0	0	0	5.46288513324273	-5.462885133242728	0.987306488608906	21.2416646560524	89.01269356897333	0	0	5.46288513324273	-5.462885133242728	0.987306488608906	21.2416646560524	89.01269356822306	0	0
0.18	-0.8494686101158945	-1.712809947672373	-86.51555305508501	0	0.9399999999999999	0	-5.176597753672675	-2.989352642004035	-13.04740162349356	1.330980510871146	0.02322999219457768	0	0	0	-3.083943451012254	-6.479093671885583	-3.586613935626488	-1.729831175869272	-0.03019124952256388	0	0	0	0	0	0	5.560516918949375	-5.560516918949373	1.004830459051073	21.59004254276477	88.99516959955612	0	0	5.560516918949375	-5.560516918949373	1.004830459051073	21.59004254276477	88.99516959880911	0	0
0.2	-0.8685993564558105	-1.737673562027266	-86.63154506225445	0	0.9399999999999999	0	-5.212740014225888	-3.001814573884488	-12.9441918201679	1.124650682918301	0.0196288573517271	0	0	0	-3.168471539267551	-6.484091300348155	-3.660866980214005	-1.967301676787748	-0.03433589163995151	0	0	0	0	0	0	5.703748024667594	-5.703748024667592	1.030032364978328	22.0159625571111	88.96996769509533	0	0	5.703748024667594	-5.703748024667592	1.030032364978328	22.0159625571111	88.96996769435309	0	0
0.22	-0.882474511118381	-1.721001387288341	-86.6805457919873	0	0.9399999999999999	0	-5.113968035703063	-3.069818638558423	-12.92666760394071	1.330455412987284	0.02322082750760903	0	0	0	-3.110889854553805	-6.468005335755925	-3.668643547057511	-1.758650095210543	-0.03069423455193573	0	0	0	0	0	0	5.868153025466335	-5.868153025466333	1.05921694861733	22.57491368813034	88.94078311315883	0	0	5.868153025466335	-5.868153025466333	1.05921694861733	22.57491368813034	88.94078311242205	0	0
0.24	-0.8857138099848092	-1.722918803962157	-86.71028801936278	0	0.9399999999999999	0	-5.133742765281525	-3.09279096652887	-12.92050146069718	1.149189366896511	0.02005713818125324	0	0	0	-3.143174823532014	-6.454415231368013	-3.631856330303518	-1.99650193301097	-0.0348455322534727	0	0	0	0	0	0	6.010370672501694	-6.010370672501693	1.084192952211896	23.01100914194419	88.91580711101716	0	0	6.010370672501694	-6.010370672501693	1.084192952211896	23.01100914194419	88.91580711028509	0	0
0.26	-0.911440771208438	-1.73556571315254	-86.76848006735449	0	0.9399999999999999	0	-5.116704799307976	-3.115414841460141	-12.90828639906685	1.142361944764252	0.0199379771856218	0	0	0	-3.131569529033684	-6.448709245130654	-3.611514495428332	-1.99576927529729	-0.03483274496407885	0	0	0	0	0	0	6.010754921593669	-6.010754921593668	1.084262573932405	23.01281834657311	88.91573748930075	0	0	6.010754921593669	-6.010754921593668	1.084262573932405	23.01281834657311	88.91573748856867	0	0
0.28	-0.8810349847938356	-1.699406940255311	-86.81734928294189	0	0.9399999999999999	0	-5.04333168490213	-3.176324516438292	-12.88310881765022	1.113124192337024	0.0194276821398837	0	0	0	-3.057762562393863	-6.377926047540682	-3.57833044124448	-1.98780227697159	-0.03469369461179449	0	0	0	0	0	0	6.508993396388626	-6.508993396388625	1.171954052589775	24.66011767529058	88.82804601574865	0	0	6.508993396388626	-6.508993396388625	1.171954052589775	24.66011767529058	88.82804601503297	0	0
0.3	-0.8734120280632705	-1.67443495300268	-86.86217018856901	0	0.9399999999999999	0	-4.995116054001667	-3.223573343753985	-12.84392670849593	1.110264480744571	0.01937777075693795	0	0	0	-3.016386528864963	-6.328019607463643	-3.562966729297907	-2.06690861258632	-0.03607436062745919	0	0	0	0	0	0	6.663597186939016	-6.663597186939016	1.19886564030327	25.14386982649462	88.80113442959787	0	0	6.663597186939016	-6.663597186939016	1.19886564030327	25.14386982649462	88.80113442888724	0	0
0.32	-0.8461241541074906	-1.669205312811717	-86.89789983958239	0	0.9399999999999999	0	-4.960170570261234	-3.290329728728555	-12.81648929885844	1.115011612384484	0.01946062383408002	0	0	0	-2.955456661313212	-6.254294927873372	-3.506336593716611	-2.065819995750527	-0.03605536067938196	0	0	0	0	0	0	6.806938660571942	-6.806938660571941	1.2238058779857	25.59849721343723	88.77619419336368	0	0	6.806938660571942	-6.806938660571941	1.2238058779857	25.59849721343723	88.77619419265768	0	0
0.34	-0.8213567553006632	-1.626349347633538	-86.92908836712233	0	0.9399999999999999	0	-4.894329541046104	-3.359725015402856	-12.76955361521182	1.114389709781793	0.01944976958603634	0	0	0	-2.83842520306968	-6.175680697268122	-3.42911647302406	-2.021974844284054	-0.03529011842525639	0	0	0	0	0	0	6.952541783556441	-6.952541783556442	1.249110663858096	26.06364421332492	88.7508894089604	0	0	6.952541783556441	-6.952541783556442	1.249110663858096	26.06364421332492	88.75088940825913	0	0
0.36	-0.8358366531965433	-1.630686956943117	-86.96278816074924	0	0.9399999999999999	0	-4.893088253675479	-3.360083267876331	-12.71509540160076	1.099748830654936	0.01919423803988618	0	0	0	-2.767157393731383	-6.125014669957775	-3.319485726616558	-2.023558395261414	-0.0353177566036845	0	0	0	0	0	0	6.953649372661822	-6.953649372661823	1.249311608176502	26.06866218519363	88.75068846465382	0	0	6.953649372661822	-6.953649372661823	1.249311608176502	26.06866218519363	88.75068846395256	0	0
